<svg xmlns="http://www.w3.org/2000/svg" viewBox="0 0 43 63.1" class="icone-logo">
              <style>
                .st0 {
                  fill: #1a8b9c
                }
              </style>
              <path class="st0" d="M22.6 14.7h4.1V32h-4.1zM30.5 21h4.1v11h-4.1zM38.4 18.3h4.1v13.6h-4.1z" id="grafico"></path>
              <path d="M5 17.8c0-4.7.9-7.9 2.8-9.8 1.8-1.9 5.1-2.8 9.9-2.8H43V0H17.7C11.5 0 7 1.4 4.2 4.3 1.3 7.2-.1 11.7-.1 17.8v11c0 6.1 1.4 10.6 4.3 13.5 2.9 2.9 7.4 4.3 13.5 4.3h20.1v1.6c0 3.2-.6 5.4-1.8 6.6-1.2 1.2-3.4 1.7-6.6 1.7-1.8 0-2.7.9-2.7 2.6 0 .9.2 1.5.7 1.9.5.4 1.1.6 1.9.6 4.7 0 8.1-1.1 10.3-3.3.3-.3.5-.5.7-.8 1.7-2.2 2.6-5.3 2.6-9.3V41.5H17.7c-4.7 0-8-.9-9.9-2.8C5.9 36.8 5 33.5 5 28.8v-11z" fill="#cecece" id="monitor"></path>
            </svg>